# AST/ASF file generated using VICON BodyLanguage
# -----------------------------------------------
:version 1.10
:name VICON
:units
  mass 1.0
  length 0.45
  angle deg
:documentation
   .ast/.asf automatically generated from VICON data using
   VICON BodyBuilder and BodyLanguage model FoxedUp or BRILLIANT.MOD
:root
   order TX TY TZ RX RY RZ
   axis XYZ
   position 0 0 0  
   orientation 0 0 0 
:bonedata
  begin
     id 1 
     name lhipjoint
     direction 0.54267 -0.795011 0.271047 
     length 2.39899 
     axis 0 0 0  XYZ
  end
  begin
     id 2 
     name lfemur
     direction 0.34202 -0.939693 0  
     length 7.49701  
     axis 0 0 20  XYZ
    dof rx ry rz
    limits (-160.0 20.0)
           (-70.0 70.0)
           (-60.0 70.0)
  end
  begin
     id 3 
     name ltibia
     direction 0.34202 -0.939693 0   
     length 8.1668   
     axis 0 0 20   XYZ
    dof rx
    limits (-10.0 170.0)
  end
  begin
     id 4 
     name lfoot
     direction 0.0736283 -0.202292 0.976554   
     length 2.13544   
     axis -90 7.62852e-016 20   XYZ
    dof rx rz
    limits (-45.0 90.0)
           (-70.0 20.0)
  end
  begin
     id 5 
     name ltoes
     direction 1.53557e-011 -4.22024e-011 1   
     length 1.07411   
     axis -90 7.62852e-016 20   XYZ
    dof rx
    limits (-90.0 20.0)
  end
  begin
     id 6 
     name rhipjoint
     direction -0.538061 -0.797813 0.272002   
     length 2.39057  
     axis 0 0 0  XYZ 
  end
  begin
     id 7 
     name rfemur
     direction -0.34202 -0.939693 0   
     length 7.50152   
     axis 0 0 -20   XYZ
    dof rx ry rz
    limits (-160.0 20.0)
           (-70.0 70.0)
           (-70.0 60.0)
  end
  begin
     id 8 
     name rtibia
     direction -0.34202 -0.939693 0   
     length 8.05793   
     axis 0 0 -20   XYZ
    dof rx
    limits (-10.0 170.0)
 end
 begin
     id 9 
     name rfoot
     direction -0.0765195 -0.210236 0.974652   
     length 2.28698  
     axis -90 -7.62852e-016 -20   XYZ
    dof rx rz
    limits (-45.0 90.0)
           (-20.0 70.0)
  end
  begin
     id 10 
     name rtoes
     direction -1.53542e-011 -4.21847e-011 1   
     length 1.14762   
     axis -90 -7.62852e-016 -20   XYZ
    dof rx
    limits (-90.0 20.0)
  end
  begin
     id 11 
     name lowerback
     direction -0.0217239 0.996592 -0.0795765   
     length 2.08176   
     axis 0 0 0   XYZ
    dof rx ry rz
    limits (-20.0 45.0)
           (-30.0 30.0)
           (-30.0 30.0)
  end
  begin
     id 12 
     name upperback
     direction -0.00563773 0.999651 -0.0258155   
     length 2.08898   
     axis 0 0 0   XYZ
    dof rx ry rz
    limits (-20.0 45.0)
           (-30.0 30.0)
           (-30.0 30.0)
  end
  begin
     id 13 
     name thorax
     direction 0.0032706 0.999923 0.0119599   
     length 2.0968   
     axis 0 0 0   XYZ
    dof rx ry rz
    limits (-20.0 45.0)
           (-30.0 30.0)
           (-30.0 30.0)
  end
  begin
     id 14 
     name lowerneck
     direction -0.0285886 0.99568 0.0883427   
     length 1.81272   
     axis 0 0 0   XYZ
    dof rx ry rz
    limits (-20.0 45.0)
           (-30.0 30.0)
           (-30.0 30.0)
  end
  begin
     id 15 
     name upperneck
     direction 0.0807535 0.97985 -0.18268   
     length 1.82518   
     axis 0 0 0   XYZ
    dof rx ry rz
    limits (-20.0 45.0)
           (-30.0 30.0)
           (-30.0 30.0)
  end
  begin
     id 16
     name head
     direction 0.0236605 0.997053 -0.0729767  
     length 1.84443  
     axis 0 0 0   XYZ
    dof rx ry rz
    limits (-20.0 45.0)
           (-30.0 30.0)
           (-30.0 30.0)
  end
  begin
     id 17 
     name lclavicle
     direction 0.918986 0.39378 -0.0200683  
     length 3.27822  
     axis 0 0 0   XYZ
    dof ry rz
    limits (-20.0 10.0)
           (0.0 20.0)
  end
  begin
     id 18 
     name lhumerus
     direction 1 -4.4897e-011 2.09544e-027   
     length 5.5568   
     axis 180 -30 -90   XYZ
    dof rx ry rz
    limits (-60.0 90.0)
           (-90.0 90.0)
           (-90.0 90.0)
  end
  begin
     id 19
     name lradius
     direction 1 -4.48957e-011 -1.27696e-026   
     length 3.63979   
     axis 180 -30 -90   XYZ
    dof rx
    limits (-10.0 170.0)
  end
  begin
     id 20
     name lwrist
     direction 1 -4.49001e-011 -1.49001e-026   
     length 1.8199   
     axis 9.0955e-015 90 90   XYZ
    dof ry
    limits (-180.0 0.0)
 end
  begin
     id 21 
     name lhand
     direction 1 -4.48709e-011 -2.9758e-026   
     length 0.569419   
     axis 1.90115e-014 90 90   XYZ
    dof rx rz
    limits (-90.0 90.0)
           (-45.0 45.0)
  end
  begin
     id 22 
     name lfingers
     direction 1 -4.49175e-011 -5.96505e-026   
     length 0.45908   
     axis 3.80223e-014 90 90   XYZ
    dof rx
    limits (0.0 90.0)
  end
  begin
     id 23
     name lthumb
     direction 0.707107 -6.34864e-011 0.707107   
     length 0.65915   
     axis -90 45 -3.84942e-014   XYZ
    dof rx rz
    limits (-45.0 45.0)
           (-45.0 45.0)
  end
  begin
     id 24 
     name rclavicle
     direction -0.911913 0.396426 -0.106115   
     length 3.46301  
     axis 0 0 0   XYZ 
    dof ry rz
    limits (-10.0 20.0)
           (-20.0 0.0)
  end
  begin
     id 25 
     name rhumerus
     direction -1 -4.48965e-011 7.78516e-028  
     length 5.34339   
     axis 180 30 90   XYZ
    dof rx ry rz
    limits (-90.0 60.0)
           (-90.0 90.0)
           (-90.0 90.0)
  end
  begin
     id 26 
     name rradius
     direction -1 -4.48948e-011 -5.79823e-027   
     length 3.65101   
     axis 180 30 90   XYZ
    dof rx
    limits (-10.0 170.0)
  end
  begin
     id 27 
     name rwrist
     direction -1 -4.48995e-011 -1.48996e-026   
     length 1.8255   
     axis 9.0955e-015 -90 -90   XYZ
    dof ry
    limits (-180.0 0.0)
  end
  begin
     id 28
     name rhand
     direction -1 -4.48957e-011 -2.97937e-026   
     length 0.694249   
     axis 1.90115e-014 -90 -90   XYZ
    dof rx rz
    limits (-90.0 90.0)
           (-45.0 45.0)
  end
  begin
     id 29
     name rfingers
     direction -1 -4.4898e-011 -5.95943e-026   
     length 0.559721   
     axis 3.80223e-014 -90 -90   XYZ
    dof rx
    limits (0.0 90.0)
  end
  begin
     id 30
     name rthumb
     direction -0.707107 -6.34969e-011 0.707107   
     length 0.803651   
     axis -90 -45 3.84942e-014   XYZ
    dof rx rz
    limits (-45.0 45.0)
           (-45.0 45.0)
  end
:hierarchy
  begin
    root lhipjoint rhipjoint lowerback
    lhipjoint lfemur
    lfemur ltibia
    ltibia lfoot
    lfoot ltoes
    rhipjoint rfemur
    rfemur rtibia
    rtibia rfoot
    rfoot rtoes
    lowerback upperback
    upperback thorax
    thorax lowerneck lclavicle rclavicle
    lowerneck upperneck
    upperneck head
    lclavicle lhumerus
    lhumerus lradius
    lradius lwrist
    lwrist lhand lthumb
    lhand lfingers
    rclavicle rhumerus
    rhumerus rradius
    rradius rwrist
    rwrist rhand rthumb
    rhand rfingers
  end

#!OML:ASF H:\Terrain\Walking\May29\JustinRory\rory.ASF
:FULLY-SPECIFIED
:DEGREES
227
root 9.86955 17.0736 -10.4301 -9.12449 41.1958 -6.53943
lowerback 10.4412 5.23345 -8.2458
upperback 5.9098 6.32932 -4.17605
thorax -0.00274204 3.10911 -0.430941
lowerneck 0.865345 -19.36 -17.5368
upperneck 7.35381 -29.2578 26.3786
head 8.91695 -14.0298 7.74027
rclavicle -4.45278e-014 3.18055e-015
rhumerus 9.52931 -55.6276 -50.1219
rradius 15.1791
rwrist 20.9374
rhand -20.4148 21.6767
rfingers 7.12502
rthumb 5.93938 -8.22006
lclavicle -4.45278e-014 3.18055e-015
lhumerus -32.2341 9.09398 35.5989
lradius 38.9043
lwrist 1.47414
lhand -14.0029 26.469
lfingers 7.12502
lthumb 12.1263 56.0976
rfemur -15.8522 -0.275455 2.66825
rtibia 21.2077
rfoot -14.5344 -28.9802
rtoes 26.3283
lfemur -25.225 0.730675 -15.7247
ltibia 54.9446
lfoot -22.6296 3.17994
ltoes -1.09185
228
root 9.84232 17.0615 -10.2351 -9.65458 41.1457 -7.76568
lowerback 9.80108 5.15388 -7.70189
upperback 5.73008 6.323 -3.99279
thorax 0.182252 3.10863 -0.481866
lowerneck 0.732652 -19.363 -17.6341
upperneck 8.3301 -29.431 26.1443
head 9.27858 -14.057 7.62451
rclavicle -5.80451e-014 2.8625e-014
rhumerus 8.64308 -55.0199 -49.4926
rradius 15.0645
rwrist 21.4244
rhand -18.4541 21.5074
rfingers 7.12502
rthumb 7.83207 -8.32755
lclavicle -5.80451e-014 2.8625e-014
lhumerus -31.1835 10.3373 35.3754
lradius 39.0634
lwrist 1.17227
lhand -15.7898 25.2288
lfingers 7.12502
lthumb 10.403 54.9515
rfemur -15.0291 1.72507 3.54291
rtibia 19.0014
rfoot -14.1648 -31.6542
rtoes 27.1192
lfemur -25.4333 0.649063 -14.108
ltibia 55.5094
lfoot -23.0429 3.44185
ltoes -4.26939
229
root 9.82328 17.0423 -10.0512 -9.75568 41.4859 -8.04683
lowerback 9.47689 5.03069 -7.60602
upperback 5.60095 6.1939 -4.11294
thorax 0.250654 3.04796 -0.619293
lowerneck 0.660354 -19.4028 -17.2343
upperneck 9.1836 -29.5594 25.5601
head 9.42861 -14.0758 7.35741
rclavicle -1.24837e-013 1.27222e-014
rhumerus 7.41767 -54.3373 -48.7092
rradius 15.0169
rwrist 21.8796
rhand -16.1761 21.2302
rfingers 7.12502
rthumb 10.0302 -8.51077
lclavicle -1.24837e-013 1.27222e-014
lhumerus -30.8817 9.72027 35.1254
lradius 40.2152
lwrist 2.54392
lhand -17.5856 23.8097
lfingers 7.12502
lthumb 8.67024 53.6117
rfemur -14.0417 3.06379 3.50979
rtibia 17.1958
rfoot -14.5804 -32.887
rtoes 29.7728
lfemur -25.4191 0.0956892 -13.4432
ltibia 56.0531
lfoot -23.6215 3.85094
ltoes -7.1712
230
root 9.8028 17.0111 -9.87684 -9.98137 41.7559 -8.16893
lowerback 9.4328 4.94676 -7.52039
upperback 5.59136 6.09814 -4.29797
thorax 0.297659 3.00597 -0.842257
lowerneck 0.554966 -19.4287 -16.5611
upperneck 9.77267 -29.6047 24.9932
head 9.43576 -14.0594 7.08284
rclavicle 8.11041e-014 5.08889e-014
rhumerus 6.53194 -54.2283 -48.3405
rradius 15.0189
rwrist 23.0585
rhand -15.0824 20.4795
rfingers 7.12502
rthumb 11.0853 -9.20777
lclavicle 8.11041e-014 5.08889e-014
lhumerus -30.2612 9.91519 35.1247
lradius 41.3488
lwrist 4.24508
lhand -18.2974 23.3807
lfingers 7.12502
lthumb 7.98327 53.21
rfemur -13.0437 3.8317 3.42283
rtibia 16.0216
rfoot -16.3367 -32.0797
rtoes 33.667
lfemur -25.1048 -0.431544 -12.916
ltibia 56.5218
lfoot -24.2456 3.87323
ltoes -8.59671
231
root 9.77796 17.003 -9.69573 -10.4727 41.8502 -8.37057
lowerback 9.54613 4.86744 -7.57581
upperback 5.48864 5.96793 -4.43757
thorax 0.143443 2.94749 -0.958347
lowerneck 0.757382 -19.3154 -16.132
upperneck 10.591 -29.5431 24.5016
head 9.50033 -14.0116 6.92317
rclavicle -5.96354e-014 0
rhumerus 5.50834 -53.2216 -47.9803
rradius 15.0834
rwrist 23.6463
rhand -14.0928 19.9946
rfingers 7.12502
rthumb 12.0397 -9.63905
lclavicle -5.96354e-014 0
lhumerus -30.3754 8.47642 34.3745
lradius 43.1925
lwrist 7.15674
lhand -18.6811 24.624
lfingers 7.12502
lthumb 7.613 54.467
rfemur -12.1354 4.37762 3.6543
rtibia 15.5992
rfoot -12.7422 -33.3103
rtoes 37.1801
lfemur -24.4328 -0.832999 -12.2506
ltibia 56.83
lfoot -24.7288 3.76868
ltoes -9.78086
